<?xml version="1.0" encoding="UTF-8" standalone="no"?>
<svg height='300px' width='300px'  fill="#839496" xmlns="http://www.w3.org/2000/svg" data-name="Layer 1" viewBox="0 0 32 32" x="0px" y="0px"><title>Copy, Link, Web Page, Href, interface</title><path d="M25,28H11a3,3,0,0,1-3-3V11a3,3,0,0,1,3-3H25a3,3,0,0,1,3,3V25A3,3,0,0,1,25,28ZM11,10a1,1,0,0,0-1,1V25a1,1,0,0,0,1,1H25a1,1,0,0,0,1-1V11a1,1,0,0,0-1-1Z"></path><path d="M9,24H7a3,3,0,0,1-3-3V7A3,3,0,0,1,7,4H21a3,3,0,0,1,3,3V9a1,1,0,0,1-2,0V7a1,1,0,0,0-1-1H7A1,1,0,0,0,6,7V21a1,1,0,0,0,1,1H9a1,1,0,0,1,0,2Z"></path><path d="M15,24a3,3,0,0,1-2.12-5.12l1-1a3.07,3.07,0,0,1,4.24,0,3,3,0,0,1,0,4.24l-1,1A3,3,0,0,1,15,24Zm1-5a1,1,0,0,0-.71.29h0l-1,1a1,1,0,0,0,0,1.41,1,1,0,0,0,1.41,0l1-1A1,1,0,0,0,16,19Zm-1.41-.41h0Z"></path><path d="M20,19a3,3,0,0,1-2.12-5.12l1-1a3.07,3.07,0,0,1,4.24,0,3,3,0,0,1,0,4.24l-1,1A3,3,0,0,1,20,19Zm1-5a1,1,0,0,0-.71.29h0l-1,1a1,1,0,0,0,0,1.41,1,1,0,0,0,1.41,0l1-1A1,1,0,0,0,21,14Zm-1.41-.41h0Z"></path><path d="M17,20a1,1,0,0,1-.71-1.71l2-2a1,1,0,0,1,1.41,1.41l-2,2A1,1,0,0,1,17,20Z"></path></svg>
